<svg width="312" height="312" viewBox="0 0 312 312" fill="none" xmlns="http://www.w3.org/2000/svg">
    <g clip-path="url(#clip0)">
        <ellipse cx="155.019" cy="155.994" rx="155.019" ry="155.019" fill="url(#paint0_linear)"/>
        <circle cx="155.019" cy="155.994" r="143.807" fill="url(#paint1_linear)"/>
        <path fill-rule="evenodd" clip-rule="evenodd"
              d="M205.991 107.141V120.033L219.051 120.301V200.111L203.394 215.467H121.984L121.067 200.111H117.239L101.396 233.504H95.6523V102.867L87.2593 92.3063V87.8044L193.507 87.8045L192.587 106.773L205.991 107.141ZM170.633 193.41C165.281 195.016 160.278 195.735 155.623 195.569C148.391 195.311 142.174 194.527 136.972 193.219C131.769 191.91 126.784 189.477 125.038 187.663L129.749 163.586L141.678 165.965L144.076 178.65C145.292 180.086 147.219 181.255 149.857 182.158C152.541 183.017 155.33 183.499 158.222 183.602C160.166 183.671 161.986 183.377 163.684 182.719C165.429 182.018 166.819 181.102 167.855 179.971C168.938 178.797 169.503 177.559 169.549 176.259C169.607 174.644 169.003 173.162 167.739 171.815C166.477 170.422 164.869 169.174 162.918 168.072C161.013 166.926 158.303 165.504 154.789 163.806C149.361 161.187 144.922 158.782 141.47 156.593C138.02 154.359 135.068 151.491 132.613 147.99C130.161 144.444 129.022 140.226 129.196 135.336C129.392 129.863 131.01 125.093 134.052 121.024C137.093 116.955 141.162 113.889 146.259 111.825C151.358 109.717 157.003 108.773 163.195 108.994C165.726 109.085 168.7 109.438 172.117 110.054C175.58 110.672 178.765 111.459 181.672 112.416C184.581 113.329 186.583 114.276 187.68 115.259C187.656 115.932 187.255 119.555 186.477 126.13C185.699 132.705 185.177 137.178 184.911 139.549L173.255 137.112L171.003 126.049C169.892 124.213 168.067 122.71 165.53 121.542C162.994 120.328 160.46 119.676 157.929 119.586C154.991 119.481 152.707 120.096 151.075 121.43C149.444 122.764 148.585 124.642 148.498 127.065C148.445 128.545 149.05 129.981 150.313 131.374C151.622 132.723 153.275 133.973 155.27 135.122C157.265 136.271 160.107 137.788 163.796 139.671C169.53 142.571 174.233 145.209 177.904 147.586C181.577 149.918 184.707 152.882 187.293 156.478C189.927 160.031 191.159 164.184 190.989 168.939C190.752 175.579 188.638 180.915 184.647 184.95C180.702 188.986 176.031 191.806 170.633 193.41Z"
              fill="url(#paint2_linear)"/>
        <path d="M214.657 96.1437V107.691L224.14 107.892V96.1437H234.884L235.54 87.8599H224.14V76.1621L214.657 75.5596V87.8599H203.611L203.208 96.1437H214.657Z"
              fill="white"/>
    </g>
    <defs>
        <linearGradient id="paint0_linear" x1="155.019" y1="0.974976" x2="155.019" y2="311.013"
                        gradientUnits="userSpaceOnUse">
            <stop stop-color="#F6C627"/>
            <stop offset="1" stop-color="#FF810D"/>
        </linearGradient>
        <linearGradient id="paint1_linear" x1="11.2122" y1="12.187" x2="298.826" y2="299.801"
                        gradientUnits="userSpaceOnUse">
            <stop stop-color="#3E3D3D"/>
            <stop offset="1" stop-color="#171717"/>
        </linearGradient>
        <linearGradient id="paint2_linear" x1="98.4714" y1="272.258" x2="285.177" y2="-106.758"
                        gradientUnits="userSpaceOnUse">
            <stop stop-color="#F6C627"/>
            <stop offset="1" stop-color="#FF810D"/>
        </linearGradient>
        <clipPath id="clip0">
            <rect width="311.013" height="311.013" fill="white"/>
        </clipPath>
    </defs>
</svg>
